<?xml version="1.0" encoding="UTF-8" standalone="no" ?>
<!DOCTYPE svg PUBLIC "-//W3C//DTD SVG 1.1//EN" "http://www.w3.org/Graphics/SVG/1.1/DTD/svg11.dtd">
<svg xmlns="http://www.w3.org/2000/svg" xmlns:xlink="http://www.w3.org/1999/xlink" version="1.1" width="2000" height="2000" viewBox="0 0 2000 2000" xml:space="preserve">
<desc>Created with Fabric.js 5.2.4</desc>
<defs>
</defs>
<g transform="matrix(1 0 0 1 1000 1000)" id="4de2220d-da63-4786-a10f-3f622fce9f0f"  >
<rect style="stroke: none; stroke-width: 1; stroke-dasharray: none; stroke-linecap: butt; stroke-dashoffset: 0; stroke-linejoin: miter; stroke-miterlimit: 4; fill: rgb(255,255,255); fill-rule: nonzero; opacity: 1; visibility: hidden;" vector-effect="non-scaling-stroke"  x="-1000" y="-1000" rx="0" ry="0" width="2000" height="2000" />
</g>
<g transform="matrix(Infinity NaN NaN Infinity 0 0)" id="c62d7c7d-973b-4cdc-ba2b-2fa59c939985"  >
</g>
<g transform="matrix(1 0 0 1 1000 1000)" id="54f79a1b-562f-410c-b6a7-0197f68bddeb"  >
<path style="stroke: rgb(0,0,0); stroke-width: 0; stroke-dasharray: none; stroke-linecap: butt; stroke-dashoffset: 0; stroke-linejoin: miter; stroke-miterlimit: 4; fill: rgb(0,0,0); fill-rule: nonzero; opacity: 1;" vector-effect="non-scaling-stroke"  transform=" translate(-960, -960.07)" d="M 1920 428.266 L 1920 1617.806 L 1455.84 1037.66 L 1367.637 1108.2450000000001 L 1836.3159999999998 1694.1490000000001 L 83.684 1694.1490000000001 L 552.3629999999999 1108.2450000000001 L 464.16099999999994 1037.66 L 0 1617.805 L 0 428.265 L 959.944 1260.7060000000001 L 1920 428.266 Z M 1919.932 226 L 1919.932 278.627 L 959.989 1111.067 L 0.045 278.628 L 0.045 226 L 1919.932 226 Z" stroke-linecap="round" />
</g>
</svg>