<svg width="570.001" height="89" viewBox="0 0 570.001 89" xmlns="http://www.w3.org/2000/svg"><g id="svgGroup" stroke-linecap="round" fill-rule="evenodd" font-size="9pt" stroke="#e1e1ff" stroke-width="0.25mm" fill="#e1e1ff" style="stroke:#e1e1ff;stroke-width:0.25mm;fill:#e1e1ff"><path d="M 35.501 72 L 35.501 67 A 111.885 111.885 0 0 1 28.015 68.295 Q 22.835 69 18.501 69 L 15.001 69 Q 8.201 69 4.101 64.9 A 13.744 13.744 0 0 1 0.265 57.279 A 19.527 19.527 0 0 1 0.001 54 L 0.001 34 A 21.378 21.378 0 0 1 0.503 29.228 Q 1.338 25.579 3.562 22.992 A 13.454 13.454 0 0 1 4.251 22.25 Q 8.501 18 16.001 18 L 53.001 18 L 53.001 74 Q 53.001 80.8 48.901 84.9 A 13.744 13.744 0 0 1 41.28 88.736 A 19.527 19.527 0 0 1 38.001 89 Q 22.316 89 3.038 87.004 A 443.61 443.61 0 0 1 3.001 87 L 3.001 74 A 784.37 784.37 0 0 0 11.976 74.656 Q 24.576 75.5 32.001 75.5 A 3.696 3.696 0 0 0 33.317 75.273 A 3.322 3.322 0 0 0 34.501 74.5 A 3.374 3.374 0 0 0 35.5 72.096 A 4.428 4.428 0 0 0 35.501 72 Z M 201.501 72 L 201.501 67 A 111.885 111.885 0 0 1 194.015 68.295 Q 188.835 69 184.501 69 L 181.001 69 Q 174.201 69 170.101 64.9 A 13.744 13.744 0 0 1 166.265 57.279 A 19.527 19.527 0 0 1 166.001 54 L 166.001 34 A 21.378 21.378 0 0 1 166.503 29.228 Q 167.338 25.579 169.562 22.992 A 13.454 13.454 0 0 1 170.251 22.25 Q 174.501 18 182.001 18 L 219.001 18 L 219.001 74 Q 219.001 80.8 214.901 84.9 A 13.744 13.744 0 0 1 207.28 88.736 A 19.527 19.527 0 0 1 204.001 89 Q 188.316 89 169.038 87.004 A 443.61 443.61 0 0 1 169.001 87 L 169.001 74 A 784.37 784.37 0 0 0 177.976 74.656 Q 190.576 75.5 198.001 75.5 A 3.696 3.696 0 0 0 199.317 75.273 A 3.322 3.322 0 0 0 200.501 74.5 A 3.374 3.374 0 0 0 201.5 72.096 A 4.428 4.428 0 0 0 201.501 72 Z M 156.001 57.5 L 156.001 70 A 400.66 400.66 0 0 1 137.635 71.498 A 291.685 291.685 0 0 1 121.001 72 Q 114.201 72 110.101 67.9 A 13.744 13.744 0 0 1 106.265 60.279 A 19.527 19.527 0 0 1 106.001 57 L 106.001 33 A 21.378 21.378 0 0 1 106.503 28.228 Q 107.338 24.579 109.562 21.992 A 13.454 13.454 0 0 1 110.251 21.25 Q 114.501 17 122.001 17 L 142.001 17 A 21.378 21.378 0 0 1 146.773 17.502 Q 150.422 18.337 153.008 20.561 A 13.454 13.454 0 0 1 153.751 21.25 Q 158.001 25.5 158.001 33 L 158.001 51.5 L 123.501 51.5 L 123.501 55.5 A 3.696 3.696 0 0 0 123.728 56.816 A 3.322 3.322 0 0 0 124.501 58 A 3.374 3.374 0 0 0 126.904 58.999 A 4.428 4.428 0 0 0 127.001 59 Q 134.58 59 147.553 58.121 A 793.998 793.998 0 0 0 156.001 57.5 Z M 506.001 57.5 L 506.001 70 A 400.66 400.66 0 0 1 487.635 71.498 A 291.685 291.685 0 0 1 471.001 72 Q 464.201 72 460.101 67.9 A 13.744 13.744 0 0 1 456.265 60.279 A 19.527 19.527 0 0 1 456.001 57 L 456.001 33 A 21.378 21.378 0 0 1 456.503 28.228 Q 457.338 24.579 459.562 21.992 A 13.454 13.454 0 0 1 460.251 21.25 Q 464.501 17 472.001 17 L 492.001 17 A 21.378 21.378 0 0 1 496.773 17.502 Q 500.422 18.337 503.008 20.561 A 13.454 13.454 0 0 1 503.751 21.25 Q 508.001 25.5 508.001 33 L 508.001 51.5 L 473.501 51.5 L 473.501 55.5 A 3.696 3.696 0 0 0 473.728 56.816 A 3.322 3.322 0 0 0 474.501 58 A 3.374 3.374 0 0 0 476.904 58.999 A 4.428 4.428 0 0 0 477.001 59 Q 484.58 59 497.553 58.121 A 793.998 793.998 0 0 0 506.001 57.5 Z M 540.001 54 L 551.501 18 L 570.001 18 L 550.001 71 L 530.001 71 L 510.001 18 L 528.501 18 L 540.001 54 Z M 447.001 71 L 431.501 71 L 430.501 66 A 37.139 37.139 0 0 1 423.615 69.604 A 32.883 32.883 0 0 1 420.851 70.55 A 45.82 45.82 0 0 1 417.631 71.376 Q 416.091 71.707 414.739 71.863 A 19.642 19.642 0 0 1 412.501 72 L 408.001 72 Q 401.201 72 397.101 67.9 A 13.744 13.744 0 0 1 393.265 60.279 A 19.527 19.527 0 0 1 393.001 57 L 393.001 34 A 21.378 21.378 0 0 1 393.503 29.228 Q 394.338 25.579 396.562 22.992 A 13.454 13.454 0 0 1 397.251 22.25 Q 401.501 18 409.001 18 L 429.501 18 L 429.501 1 L 447.001 1 L 447.001 71 Z M 283.001 33 L 283.001 56 A 21.378 21.378 0 0 1 282.498 60.772 Q 281.663 64.421 279.439 67.008 A 13.454 13.454 0 0 1 278.751 67.75 Q 274.501 72 267.001 72 L 244.001 72 A 21.378 21.378 0 0 1 239.228 71.498 Q 235.58 70.663 232.993 68.439 A 13.454 13.454 0 0 1 232.251 67.75 Q 228.001 63.5 228.001 56 L 228.001 33 A 21.378 21.378 0 0 1 228.503 28.228 Q 229.338 24.579 231.562 21.992 A 13.454 13.454 0 0 1 232.251 21.25 Q 236.501 17 244.001 17 L 267.001 17 A 21.378 21.378 0 0 1 271.773 17.502 Q 275.422 18.337 278.008 20.561 A 13.454 13.454 0 0 1 278.751 21.25 Q 283.001 25.5 283.001 33 Z M 102.001 32.5 L 93.501 32.5 Q 87.201 32.5 80.501 35.5 L 80.501 71 L 63.001 71 L 63.001 18 L 78.501 18 L 79.501 24.5 A 34.341 34.341 0 0 1 86.202 19.857 A 24.222 24.222 0 0 1 97.501 17 L 102.001 17 L 102.001 32.5 Z M 331.001 32.5 L 322.501 32.5 Q 316.201 32.5 309.501 35.5 L 309.501 71 L 292.001 71 L 292.001 18 L 307.501 18 L 308.501 24.5 A 34.341 34.341 0 0 1 315.202 19.857 A 24.222 24.222 0 0 1 326.501 17 L 331.001 17 L 331.001 32.5 Z M 335.001 20 L 360.001 20 L 360.001 71 L 342.501 71 L 342.501 33.5 L 335.001 33.5 L 335.001 20 Z M 265.501 54.5 L 265.501 34.5 Q 265.501 31.326 262.982 30.671 A 5.893 5.893 0 0 0 261.501 30.5 L 249.501 30.5 Q 246.327 30.5 245.671 33.019 A 5.893 5.893 0 0 0 245.501 34.5 L 245.501 54.5 Q 245.501 57.674 248.019 58.329 A 5.893 5.893 0 0 0 249.501 58.5 L 261.501 58.5 Q 264.675 58.5 265.33 55.981 A 5.893 5.893 0 0 0 265.501 54.5 Z M 414.001 57.5 L 417.501 57.5 A 33.783 33.783 0 0 0 422.591 57.089 Q 425.025 56.718 427.695 56.009 A 60.966 60.966 0 0 0 429.501 55.5 L 429.501 31.5 L 414.501 31.5 Q 411.327 31.5 410.671 34.019 A 5.893 5.893 0 0 0 410.501 35.5 L 410.501 54 A 3.696 3.696 0 0 0 410.728 55.316 A 3.322 3.322 0 0 0 411.501 56.5 A 3.374 3.374 0 0 0 413.904 57.499 A 4.428 4.428 0 0 0 414.001 57.5 Z M 21.001 55.5 L 23.501 55.5 Q 29.801 55.5 35.501 54.5 L 35.501 31.5 L 21.501 31.5 Q 18.327 31.5 17.671 34.019 A 5.893 5.893 0 0 0 17.501 35.5 L 17.501 52 A 3.696 3.696 0 0 0 17.728 53.316 A 3.322 3.322 0 0 0 18.501 54.5 A 3.374 3.374 0 0 0 20.904 55.499 A 4.428 4.428 0 0 0 21.001 55.5 Z M 187.001 55.5 L 189.501 55.5 Q 195.801 55.5 201.501 54.5 L 201.501 31.5 L 187.501 31.5 Q 184.327 31.5 183.671 34.019 A 5.893 5.893 0 0 0 183.501 35.5 L 183.501 52 A 3.696 3.696 0 0 0 183.728 53.316 A 3.322 3.322 0 0 0 184.501 54.5 A 3.374 3.374 0 0 0 186.904 55.499 A 4.428 4.428 0 0 0 187.001 55.5 Z M 368.001 71 L 368.001 56 L 386.001 56 L 386.001 71 L 368.001 71 Z M 342.501 14 L 342.501 0 L 360.001 0 L 360.001 14 L 342.501 14 Z M 136.501 29.5 L 127.501 29.5 Q 124.327 29.5 123.671 32.019 A 5.893 5.893 0 0 0 123.501 33.5 L 123.501 39 L 140.501 39 L 140.501 33.5 Q 140.501 30.326 137.982 29.671 A 5.893 5.893 0 0 0 136.501 29.5 Z M 486.501 29.5 L 477.501 29.5 Q 474.327 29.5 473.671 32.019 A 5.893 5.893 0 0 0 473.501 33.5 L 473.501 39 L 490.501 39 L 490.501 33.5 Q 490.501 30.326 487.982 29.671 A 5.893 5.893 0 0 0 486.501 29.5 Z" vector-effect="non-scaling-stroke"/></g></svg>